<?xml version="1.0" encoding="UTF-8"?>
<!DOCTYPE svg PUBLIC "-//W3C//DTD SVG 1.1//EN" "http://www.w3.org/Graphics/SVG/1.1/DTD/svg11.dtd">
<!-- Creator: CorelDRAW X8 -->
<svg xmlns="http://www.w3.org/2000/svg" xml:space="preserve" width="135.485mm" height="98.5446mm" version="1.1" style="shape-rendering:geometricPrecision; text-rendering:geometricPrecision; image-rendering:optimizeQuality; fill-rule:evenodd; clip-rule:evenodd"
viewBox="0 0 13224 9619"
 xmlns:xlink="http://www.w3.org/1999/xlink">
 <defs>
  <style type="text/css">
   <![CDATA[
    .fil0 {fill:#1C1C1B}
   ]]>
  </style>
 </defs>
 <g id="Capa_x0020_1">
  <metadata id="CorelCorpID_0Corel-Layer"/>
  <g id="_2970041174576">
   <path class="fil0" d="M5837 2332c112,-22 238,-222 414,-358l1439 -1405c148,-147 214,-170 239,-303l-1018 -170c-1361,-191 -3039,-88 -4318,232 -623,156 -1160,336 -1732,644 -293,157 -826,519 -861,893l0 125c15,141 82,217 147,325 144,240 505,925 701,1081 605,482 1704,128 2344,-119 863,-334 1758,-674 2645,-945z"/>
   <path class="fil0" d="M6741 7136c-22,116 23,46 -148,213l-478 477c-6,6 -27,23 -33,29l-38 30c0,214 -122,814 -277,989 -121,137 -254,126 -243,406 15,363 603,574 992,-328 105,-243 225,-733 225,-1067l78 0c0,282 -60,398 -76,573 -18,210 128,353 289,379 430,70 484,-551 484,-848l129 0c105,448 394,1615 1008,1629 268,7 461,-270 284,-545 -55,-86 -108,-87 -186,-150 -140,-113 -383,-711 -383,-960l78 0c14,165 364,907 768,822 167,-35 355,-278 228,-501 -23,-39 -138,-164 -176,-211 -44,-54 -46,-58 -83,-124 -36,-65 -38,-83 -66,-141 134,-11 120,-73 209,22 40,44 240,339 392,488 185,184 402,422 674,515 365,126 621,-275 386,-542 -47,-53 -574,-362 -627,-561 135,91 540,601 879,389 133,-83 225,-314 96,-485 -119,-157 -281,-167 -381,-317 84,23 759,470 1080,150 162,-161 171,-546 -280,-589 -151,-14 -183,-48 -310,-77 44,-60 107,-87 174,-137l930 -749c124,-109 177,-308 71,-470 -90,-137 -291,-200 -451,-117l-734 609c-137,107 -246,182 -392,280 -1026,684 -2255,1230 -3571,1044 -78,-11 -475,-73 -521,-125zm-697 672l0 26 0 -26z"/>
   <path class="fil0" d="M6044 7808l0 26 0 51 38 -30c6,-6 27,-23 33,-29l478 -477c171,-167 126,-97 148,-213 -222,-35 -951,-356 -1268,-462 -436,-145 -854,-294 -1314,-416 -681,-180 -2381,-545 -2816,104 143,164 308,316 413,516 334,-224 348,-182 879,-182 156,1 188,27 335,27 -147,278 -312,577 -572,745 -146,94 -308,127 -308,366 0,365 457,603 1105,-163 105,-124 186,-259 271,-400l173 -318c64,-110 -16,-62 106,-75 -45,194 -173,326 -251,498 -108,235 42,436 224,487 248,69 365,-119 455,-272 61,-103 234,-420 244,-532 100,23 110,-15 58,239 -63,310 -129,607 -289,874 -156,260 -310,284 -401,373 -372,359 310,1125 1005,-28 143,-239 376,-839 376,-1200 79,7 124,25 181,52 -103,438 -375,837 20,987 91,34 212,28 300,-21 177,-98 246,-412 303,-601 34,-116 -2,-76 74,-107l0 181z"/>
   <path class="fil0" d="M5837 2332l1044 -273c1208,-269 2545,-265 3675,41 -31,-77 11,-86 84,-156 54,-53 89,-88 143,-142 96,-97 210,-198 290,-296 -72,-79 -614,-345 -697,-380 -137,-58 -222,-113 -369,-174 -570,-237 -1041,-421 -1649,-572 -128,-32 -332,-71 -429,-114 -25,133 -91,156 -239,303l-1439 1405c-176,136 -302,336 -414,358z"/>
   <path class="fil0" d="M10556 2100l379 119c496,165 918,368 1358,631l590 392c163,112 171,134 341,20 0,-233 -17,-169 -277,-420l-682 -558c-96,-72 -186,-143 -281,-210 -159,-112 -782,-538 -911,-568 -80,98 -194,199 -290,296 -54,54 -89,89 -143,142 -73,70 -115,79 -84,156z"/>
  </g>
 </g>
</svg>
